<svg width="32" height="32" viewBox="0 0 32 32" fill="none" xmlns="http://www.w3.org/2000/svg">
<path d="M7.30843 14.0115H11.5099C11.9672 13.0137 12.7521 12.2022 13.7343 11.7119C14.7164 11.2215 15.8366 11.0818 16.9091 11.3158C17.9815 11.5499 18.9417 12.1437 19.6301 12.9987C20.3186 13.8536 20.6941 14.9184 20.6941 16.0161C20.6941 17.1138 20.3186 18.1784 19.6301 19.0334C18.9417 19.8883 17.9815 20.4822 16.9091 20.7162C15.8366 20.9503 14.7164 20.8106 13.7343 20.3203C12.7521 19.8299 11.9672 19.0185 11.5099 18.0206H7.30843C7.80036 20.1284 9.0502 21.9818 10.82 23.2278C12.5898 24.4739 14.7561 25.0256 16.9063 24.778C19.0567 24.5305 21.0408 23.5008 22.4811 21.8852C23.9214 20.2695 24.7174 18.1805 24.7174 16.0161C24.7174 13.8516 23.9214 11.7627 22.4811 10.147C21.0408 8.53129 19.0567 7.50165 16.9063 7.25407C14.7561 7.00647 12.5898 7.55822 10.82 8.80431C9.0502 10.0503 7.80036 11.9037 7.30843 14.0115Z" fill="white"/>
<path fill-rule="evenodd" clip-rule="evenodd" d="M16 3.77641C9.24905 3.77641 3.77639 9.24908 3.77639 16C3.77639 22.7509 9.24905 28.2236 16 28.2236C22.7509 28.2236 28.2236 22.7509 28.2236 16C28.2236 9.24908 22.7509 3.77641 16 3.77641ZM0 16C0 7.16345 7.16342 0 16 0C24.8366 0 32 7.16345 32 16C32 24.8366 24.8366 32 16 32C7.16342 32 0 24.8366 0 16Z" fill="white"/>
<path d="M15.8809 17.9435C16.8947 17.9435 17.7165 17.1363 17.7165 16.1404C17.7165 15.1446 16.8947 14.3373 15.8809 14.3373C14.8671 14.3373 14.0452 15.1446 14.0452 16.1404C14.0452 17.1363 14.8671 17.9435 15.8809 17.9435Z" fill="white"/>
</svg>
